Fly_normalized_Motion_pl16
version=1
nRows=12
nColumns=43
inDegrees=yes
endheader
time		pelvis_tilt		pelvis_list		pelvis_rotation		pelvis_tx		pelvis_ty		pelvis_tz		hip_flexion_r		hip_adduction_r		hip_rotation_r		knee_angle_r		ankle_angle_r		subtalar_angle_r		mtp_angle_r		hip_flexion_l		hip_adduction_l		hip_rotation_l		knee_angle_l		ankle_angle_l		subtalar_angle_l		mtp_angle_l		lumbar_extension		lumbar_bending		lumbar_rotation		neck_flexion		neck_lateral_bending		neck_rotation		arm_flex_r		arm_add_r		arm_rot_r		elbow_flex_r		pro_sup_r		wrist_flex_r		wrist_dev_r		hand_finger_flex_r		arm_flex_l		arm_add_l		arm_rot_l		elbow_flex_l		pro_sup_l		wrist_flex_l		wrist_dev_l		hand_finger_flex_l		
0.762500		0.589135		-19.324608		86.131128		0.010534		1.950959		1.253923		58.588320		3.937372		0.169029		-62.638606		-12.056249		-12.789390		21.918672		61.232240		-7.739604		-2.939215		-65.079380		-9.435350		-3.609924		25.473664		-38.488337		-2.039093		1.343182		18.498135		-1.819226		3.450569		71.332712		-9.994593		16.284771		55.782235		113.978252		0.744855		10.766269		33.537623		76.609449		-16.089431		20.346637		59.688359		96.928113		-16.219841		10.257046		30.793661		
0.767045		0.502001		-19.216592		86.204414		0.010076		1.945408		1.246427		58.675719		3.686938		-0.130715		-61.212087		-12.193243		-12.665554		21.771228		61.174475		-7.754953		-3.460649		-63.806476		-9.740692		-3.444168		25.474058		-38.695210		-2.046967		1.291209		18.563732		-1.903574		3.428687		69.235616		-10.714652		16.392314		55.394421		114.001694		0.806328		10.933039		33.538947		74.709994		-16.664415		20.620306		59.467764		97.131258		-16.098255		10.260354		30.856706		
0.771591		0.215553		-19.222634		86.230909		0.009495		1.939294		1.238771		58.937998		3.315546		-0.229647		-59.952369		-12.138018		-12.167772		20.645388		61.189954		-7.610890		-4.101275		-62.502667		-10.430594		-3.345244		25.512493		-38.758294		-2.209184		1.139673		18.701033		-2.009194		3.309469		66.858583		-11.461889		16.231948		55.380616		114.125490		0.925432		11.250289		32.968027		72.512557		-17.003002		20.145769		59.380983		98.712691		-15.450399		9.897048		31.047384		
0.776136		0.099174		-19.160768		86.310686		0.009005		1.933082		1.231036		59.029101		3.065504		-0.455833		-58.563851		-12.182472		-11.853190		19.971439		61.117763		-7.593103		-4.664525		-61.226599		-10.825334		-3.194974		25.534096		-38.882456		-2.226557		1.081089		18.813591		-2.092248		3.254861		64.640741		-12.231970		16.258109		55.094889		114.164320		1.122290		11.421040		32.674323		70.426800		-17.474406		20.037185		59.236987		99.567336		-14.965929		9.777802		31.193543		
0.780682		0.101135		-19.007580		86.445805		0.008613		1.926672		1.223048		59.008093		2.875172		-0.803154		-57.233105		-12.465315		-11.637725		19.798533		60.949562		-7.645428		-5.124389		-60.016609		-11.263431		-2.735360		25.528991		-39.120497		-2.119647		1.004820		19.008102		-2.279146		3.220888		62.330346		-13.018404		16.319620		55.014633		114.057995		1.270495		11.327150		32.633491		68.280976		-18.250101		20.163121		59.377705		99.709603		-14.690892		9.685674		31.266229		
0.785227		0.108245		-18.897834		86.605142		0.008211		1.919968		1.215053		58.974771		2.702474		-1.095390		-55.883160		-12.697147		-11.371001		19.641408		60.797389		-7.672532		-5.559139		-58.788007		-11.702718		-2.203713		25.520326		-39.295022		-1.999735		0.913550		19.185771		-2.433188		3.212093		59.991600		-13.767047		16.300652		54.891764		114.026479		1.367037		11.295933		32.526166		66.070355		-18.993739		20.180174		59.506874		99.980832		-14.347584		9.436400		31.330900		
0.789773		0.148549		-18.807843		86.781642		0.007774		1.913031		1.207136		58.860600		2.608560		-1.253034		-54.418412		-12.816107		-11.156524		19.551070		60.626321		-7.679692		-5.951725		-57.504912		-11.949122		-1.849926		25.512000		-39.399631		-1.862991		0.889917		19.188711		-2.492726		3.234759		57.764934		-14.524191		16.357704		54.499926		114.047042		1.480344		11.361645		32.490192		63.951207		-19.649627		20.336834		59.450636		100.179943		-14.048509		9.276977		31.421771		
0.794318		0.296821		-18.660697		87.038808		0.007148		1.905842		1.198840		58.642551		2.441374		-1.651312		-53.068277		-12.598538		-10.306235		18.920606		60.419868		-7.723916		-6.190968		-56.365605		-12.200583		-0.553741		25.467673		-39.568583		-1.529286		0.771877		19.374550		-2.766769		3.393042		55.296750		-15.005615		15.846477		54.394870		114.834579		1.931282		11.292850		31.562179		61.213238		-19.898093		18.517109		59.495479		102.601033		-11.907198		7.692299		31.692792		
0.798864		0.335754		-18.476963		87.110727		0.006753		1.898470		1.190584		58.370353		2.382395		-1.857121		-51.689362		-12.774403		-10.023991		18.800066		60.092409		-7.790975		-6.604624		-55.160009		-12.696683		-0.175473		25.445851		-39.767627		-1.424005		0.754512		19.442144		-2.903026		3.420385		52.873837		-15.837058		15.863313		54.392234		114.693614		2.094330		11.106033		31.578725		58.933581		-20.723304		18.527766		59.711559		102.756948		-11.527652		7.562258		31.827106		
0.803409		0.363348		-18.274609		87.221602		0.006086		1.890918		1.182222		58.060378		2.298856		-1.980478		-50.364215		-12.871837		-9.716734		18.686917		59.705194		-7.784624		-6.980484		-53.939818		-13.098757		0.228724		25.426105		-39.956305		-1.285605		0.751487		19.521526		-3.006608		3.478025		50.539432		-16.692307		15.911635		54.161030		114.600803		2.228831		10.986472		31.586564		56.660841		-21.413259		18.481758		59.785340		102.890891		-11.117560		7.393375		31.983762		
0.807955		0.337811		-17.881871		87.310727		0.005325		1.883382		1.173562		57.571690		2.125434		-2.196022		-49.194819		-12.894972		-9.221320		18.455747		59.061291		-7.738033		-7.414812		-52.723872		-13.494958		0.746640		25.393764		-40.339072		-1.168985		0.645082		19.559718		-3.151931		3.586369		48.192910		-17.520967		15.986726		54.025226		114.430109		2.336859		10.758700		31.539175		54.238717		-22.062565		17.966050		59.898461		103.204792		-10.335024		7.022065		32.196064		
0.812500		0.252240		-17.145668		87.400394		0.004402		1.876223		1.164517		56.721801		1.863463		-2.373577		-48.200019		-12.612589		-8.328726		17.812169		57.995926		-7.606640		-7.860739		-51.525195		-13.801223		1.422149		25.314089		-41.107828		-1.060368		0.380761		19.824952		-3.355976		3.819067		46.025245		-18.231636		16.121476		53.700415		114.182262		2.457244		10.363022		31.233348		51.589476		-22.422498		16.287386		59.975355		104.440720		-8.387324		6.274077		32.456721		
